#define down_width 16
#define down_height 16
#define down_x_hot 8
#define down_y_hot 15
static char down_bits[] = {
   0x00, 0x00, 0x00, 0x00, 0x00, 0x00, 0x00, 0x01, 0x00, 0x01, 0x00, 0x01,
   0x00, 0x01, 0x00, 0x01, 0x00, 0x01, 0x00, 0x01, 0x00, 0x01, 0x20, 0x09,
   0x40, 0x05, 0x80, 0x02, 0x00, 0x01, 0x00, 0x00};
