#define error_width 16
#define error_height 16
#define error_x_hot 8
#define error_y_hot 11
static char error_bits[] = {
   0x00, 0x00, 0x00, 0x00, 0x00, 0x00, 0x00, 0x00, 0x00, 0x00, 0x00, 0x00,
   0x00, 0x00, 0x21, 0x8e, 0x23, 0x91, 0x25, 0x91, 0x25, 0x91, 0x29, 0x91,
   0x29, 0x91, 0x31, 0x11, 0x21, 0x8e, 0x00, 0x00};
