#define pause_width 16
#define pause_height 16
#define pause_x_hot 8
#define pause_y_hot 8
static char pause_bits[] = {
   0xfc, 0x3f, 0x04, 0x20, 0x08, 0x10, 0xe8, 0x17, 0xd0, 0x0b, 0xa0, 0x05,
   0xa0, 0x04, 0x40, 0x03, 0xc0, 0x02, 0x20, 0x05, 0xa0, 0x04, 0x90, 0x09,
   0xc8, 0x13, 0xe8, 0x17, 0xf4, 0x2f, 0xfc, 0x3f};
