#define right_width 16
#define right_height 16
#define right_x_hot 15
#define right_y_hot 8
static char right_bits[] = {
   0x00, 0x00, 0x00, 0x00, 0x00, 0x00, 0x00, 0x00, 0x00, 0x00, 0x00, 0x00,
   0x15, 0x10, 0x2a, 0x30, 0xff, 0x7f, 0x2a, 0x30, 0x15, 0x10, 0x00, 0x00,
   0x00, 0x00, 0x00, 0x00, 0x00, 0x00, 0x00, 0x00};
